<?xml version="1.0" encoding="iso-8859-1"?>
<!-- Uploaded to: SVG Repo, www.svgrepo.com, Generator: SVG Repo Mixer Tools -->
<svg fill="#000000" height="800px" width="800px" version="1.1" id="Layer_1" xmlns="http://www.w3.org/2000/svg" xmlns:xlink="http://www.w3.org/1999/xlink" 
	 viewBox="0 0 512.001 512.001" xml:space="preserve">
<g>
	<g>
		<path d="M379.183,49.117C343.187,14.977,295.98-2.376,246.266,0.262C151.328,5.293,75.39,86.863,76.987,182.096
			c1.106,65.97,38.369,125.761,97.246,156.04c8.44,4.341,13.893,13.669,13.893,23.766v22.366c0,6.228,3.458,11.659,8.551,14.489
			v43.351c0,9.575,5.321,18.184,13.886,22.467l20.318,10.16v20.699c0,9.136,7.432,16.568,16.568,16.568h17.102
			c9.136,0,16.568-7.432,16.568-16.568v-20.699l20.318-10.16c8.565-4.282,13.886-12.892,13.886-22.467v-43.351
			c5.093-2.829,8.551-8.26,8.551-14.489v-23.061c0-9.819,5.349-18.672,13.961-23.105c59.957-30.867,97.203-91.815,97.203-159.06
			C435.038,129.419,415.203,83.277,379.183,49.117z M265.085,495.432c0,0.295-0.239,0.534-0.534,0.534h-17.102
			c-0.295,0-0.534-0.239-0.534-0.534v-17.637h18.171V495.432z M299.291,442.108c-0.001,3.463-1.925,6.578-5.023,8.127
			l-23.058,11.529H240.79l-23.057-11.529c-3.098-1.549-5.023-4.664-5.023-8.127v-7.066h86.58V442.108z M212.71,419.007v-18.171
			h86.58v18.171H212.71z M330.496,323.847c-13.974,7.194-22.654,21.509-22.654,37.36v23.061c0,0.295-0.239,0.534-0.534,0.534
			H204.694c-0.295,0-0.534-0.239-0.534-0.534v-22.366c0-16.287-8.657-30.856-22.593-38.023
			c-53.611-27.572-87.541-82.003-88.548-142.051C91.565,95.12,160.692,20.853,247.116,16.273c3.005-0.159,5.99-0.238,8.972-0.238
			c41.958,0,81.465,15.697,112.063,44.715c32.795,31.102,50.854,73.113,50.854,118.293
			C419.005,240.255,385.09,295.741,330.496,323.847z"/>
	</g>
</g>
<g>
	<g>
		<path d="M281.118,191.902v-59.955c10.466,4.193,18.171,10.896,18.171,19.037c0,4.427,3.589,8.017,8.017,8.017
			c4.427,0,8.017-3.589,8.017-8.017c0-16.264-13.836-29.952-34.204-36.191v-12.71c0-4.427-3.589-8.017-8.017-8.017
			c-4.427,0-8.017,3.589-8.017,8.017v9.531c-2.957-0.293-5.989-0.446-9.086-0.446c-3.097,0-6.129,0.153-9.086,0.446v-9.531
			c0-4.427-3.589-8.017-8.017-8.017c-4.427,0-8.017,3.589-8.017,8.017v12.71c-20.369,6.239-34.204,19.927-34.204,36.191
			c0,21.524,14.563,32.842,34.204,40.852v59.955c-10.466-4.192-18.171-10.895-18.171-19.037c0-4.427-3.589-8.017-8.017-8.017
			c-4.427,0-8.017,3.589-8.017,8.017c0,16.264,13.836,29.952,34.204,36.191v12.71c0,4.427,3.589,8.017,8.017,8.017
			c4.427,0,8.017-3.589,8.017-8.017v-9.531c2.957,0.293,5.989,0.446,9.086,0.446c3.097,0,6.129-0.153,9.086-0.446v9.531
			c0,4.427,3.589,8.017,8.017,8.017c4.427,0,8.017-3.589,8.017-8.017v-12.71c20.369-6.239,34.204-19.927,34.204-36.191
			C315.323,211.229,300.76,199.912,281.118,191.902z M230.881,174.247c-13.304-6.476-18.171-13.359-18.171-23.263
			c0-8.142,7.705-14.845,18.171-19.037V174.247z M265.085,255.918c-3.026,0.402-6.08,0.618-9.086,0.618
			c-3.005,0-6.06-0.216-9.086-0.619V197.49c2.248,0.702,4.521,1.392,6.816,2.068c4.114,1.214,7.886,2.398,11.355,3.568V255.918z
			 M265.085,186.248c-2.248-0.702-4.521-1.391-6.816-2.068c-4.114-1.214-7.886-2.399-11.355-3.568V127.82
			c3.026-0.403,6.081-0.619,9.086-0.619c3.005,0,6.06,0.216,9.086,0.619V186.248z M281.118,251.79v-42.299
			c13.304,6.476,18.171,13.359,18.171,23.262C299.29,240.895,291.585,247.598,281.118,251.79z"/>
	</g>
</g>
</svg>